<svg width="41" height="35" viewBox="0 0 41 35" fill="none" xmlns="http://www.w3.org/2000/svg">
<path fill-rule="evenodd" clip-rule="evenodd" d="M21.4806 0.55336C21.2794 0.21267 20.9082 0.00200266 20.5057 1.4197e-05C20.1032 -0.00197414 19.7299 0.205015 19.5251 0.543699L15.845 6.63066C15.5269 7.15688 15.7054 7.83553 16.2438 8.14648C16.7822 8.45743 17.4766 8.28292 17.7947 7.7567L20.4886 3.30095L37.9064 32.7866H14.2722L14.2722 23.3043C14.924 24.1652 15.5719 24.8724 16.2578 25.447C17.7102 26.664 19.2602 27.2291 21.1774 27.5172C21.7955 27.6101 22.3736 27.1956 22.4686 26.5915C22.5636 25.9873 22.1396 25.4223 21.5215 25.3294C19.9044 25.0865 18.7836 24.648 17.7318 23.7666C16.6729 22.8794 15.6208 21.4918 14.2722 19.2111V17.7707C14.924 18.6316 15.5719 19.3388 16.2578 19.9135C17.7102 21.1304 19.2602 21.6955 21.1774 21.9836C21.7955 22.0765 22.3736 21.662 22.4686 21.0579C22.5636 20.4538 22.1396 19.8887 21.5215 19.7959C19.9044 19.5529 18.7836 19.1144 17.7318 18.233C16.6729 17.3458 15.6208 15.9582 14.2722 13.6775V12.7903C14.924 13.6512 15.5719 14.3583 16.2578 14.933C17.7102 16.15 19.2602 16.7151 21.1774 17.0032C21.7955 17.096 22.3736 16.6816 22.4686 16.0774C22.5636 15.4733 22.1396 14.9083 21.5215 14.8154C19.9044 14.5724 18.7836 14.1339 17.7318 13.2526C16.6369 12.3351 15.5492 10.8827 14.1334 8.46087L14.1261 8.44815C14.0763 8.36169 14.0142 8.28121 13.9407 8.20944C13.8678 8.13808 13.786 8.07777 13.6982 8.02925C13.619 7.98528 13.5338 7.95038 13.4442 7.92599C13.3439 7.89857 13.2415 7.88528 13.1399 7.88538C13.0412 7.88529 12.9418 7.89783 12.8442 7.92368C12.7476 7.94915 12.6561 7.98681 12.5715 8.03487C12.4875 8.08241 12.4092 8.14085 12.339 8.20952C12.2704 8.27654 12.2117 8.35116 12.1637 8.43115C12.1574 8.44154 12.1513 8.45203 12.1454 8.46264C10.7301 10.8834 9.64267 12.3354 8.54802 13.2526C7.49617 14.1339 6.37541 14.5724 4.75834 14.8154C4.14023 14.9083 3.71617 15.4733 3.8112 16.0774C3.90622 16.6816 4.48433 17.096 5.10245 17.0032C7.0196 16.7151 8.56965 16.15 10.022 14.933C10.7079 14.3583 11.3558 13.6512 12.0075 12.7903V13.6776C10.659 15.9583 9.60686 17.3458 8.54802 18.233C7.49617 19.1144 6.37541 19.5529 4.75834 19.7959C4.14023 19.8887 3.71617 20.4538 3.8112 21.0579C3.90622 21.662 4.48433 22.0765 5.10245 21.9836C7.0196 21.6955 8.56965 21.1304 10.022 19.9135C10.7079 19.3388 11.3558 18.6317 12.0075 17.7708V19.2112C10.659 21.4919 9.60686 22.8794 8.54802 23.7666C7.49617 24.648 6.37541 25.0865 4.75834 25.3294C4.14023 25.4223 3.71617 25.9873 3.8112 26.5915C3.90622 27.1956 4.48433 27.6101 5.10245 27.5172C7.0196 27.2291 8.56965 26.664 10.022 25.447C10.7079 24.8724 11.3558 24.1653 12.0075 23.3044V32.7866H3.14514L4.76566 30.1793C5.09035 29.657 4.92028 28.9762 4.3858 28.6589C3.85131 28.3415 3.15482 28.5078 2.83013 29.0301L0.164578 33.3187C-0.0478046 33.6604 -0.0551157 34.0875 0.145452 34.4359C0.34602 34.7844 0.723283 35 1.13235 35H39.8677C40.2722 35 40.646 34.7891 40.8483 34.4466C41.0506 34.1042 41.0506 33.6823 40.8483 33.3399L21.4806 0.55336Z" fill="#45536D"/>
</svg>
